{
  "asset": {
    "version": "2.0",
    "generator": "THREE.GLTFExporter"
  },
  "scenes": [
    {
      "nodes": [
        0
      ]
    }
  ],
  "scene": 0,
  "nodes": [
    {
      "children": [
        9
      ],
      "matrix": [
        0.01,
        0,
        0,
        0,
        0,
        0.01,
        0,
        0,
        0,
        0,
        0.01,
        0,
        0,
        0,
        0,
        1
      ]
    },
    {
      "matrix": [
        0.9999999999999999,
        0,
        0,
        0,
        0,
        0.9999999999999999,
        0,
        0,
        0,
        0,
        0.5738780140342664,
        0,
        0.46823883056640625,
        9.065639495849554,
        0,
        1
      ],
      "name": "Heart",
      "mesh": 0
    },
    {
      "matrix": [
        1,
        0,
        0,
        0,
        0,
        1,
        0,
        0,
        0,
        0,
        1,
        0,
        -0.46823883056640625,
        278.15393348980194,
        0,
        1
      ],
      "name": "H-Cont",
      "children": [
        1
      ]
    },
    {
      "matrix": [
        5,
        0,
        0,
        0,
        0,
        5,
        0,
        0,
        0,
        0,
        5,
        0,
        23.479908328406665,
        364.99891208513395,
        -103.26129665552347,
        1
      ],
      "name": "Point Light 4",
      "extensions": {
        "KHR_lights_punctual": {
          "light": 0
        }
      }
    },
    {
      "matrix": [
        5,
        0,
        0,
        0,
        0,
        5,
        0,
        0,
        0,
        0,
        5,
        0,
        101.20784626531267,
        364.998912085134,
        39.493437558510664,
        1
      ],
      "name": "Point Light 3",
      "extensions": {
        "KHR_lights_punctual": {
          "light": 1
        }
      }
    },
    {
      "matrix": [
        5,
        0,
        0,
        0,
        0,
        5,
        0,
        0,
        0,
        0,
        6.0045421209226015,
        0,
        -57.11631007183696,
        364.99891208513407,
        39.493437558510664,
        1
      ],
      "name": "Point Light 2",
      "extensions": {
        "KHR_lights_punctual": {
          "light": 2
        }
      }
    },
    {
      "matrix": [
        5,
        0,
        0,
        0,
        0,
        5,
        0,
        0,
        0,
        0,
        5,
        0,
        0,
        188.68411384592355,
        0,
        1
      ],
      "name": "Point Light",
      "extensions": {
        "KHR_lights_punctual": {
          "light": 3
        }
      }
    },
    {
      "matrix": [
        0.9998530059674364,
        0,
        -0.017145450063543573,
        0,
        -0.0005291353950638339,
        0.999523668504776,
        -0.03085702698719343,
        0,
        0.017137283145678514,
        0.030861563452856584,
        0.9993767444900997,
        0,
        3.4931870272004852,
        288.11182116720676,
        288.12268693622866,
        1
      ],
      "camera": 0
    },
    {
      "matrix": [
        1,
        0,
        0,
        0,
        0,
        1,
        0,
        0,
        0,
        0,
        1,
        0,
        0,
        1,
        0,
        1
      ],
      "name": "Default Ambient Light"
    },
    {
      "name": "Scene 1",
      "children": [
        2,
        3,
        4,
        5,
        6,
        7,
        8
      ]
    }
  ],
  "bufferViews": [
    {
      "buffer": 0,
      "byteOffset": 0,
      "byteLength": 61440,
      "target": 34962,
      "byteStride": 12
    },
    {
      "buffer": 0,
      "byteOffset": 61440,
      "byteLength": 61440,
      "target": 34962,
      "byteStride": 12
    },
    {
      "buffer": 0,
      "byteOffset": 122880,
      "byteLength": 30720,
      "target": 34963
    }
  ],
  "buffers": [
    {
      "byteLength": 153600,
      "uri": "data:application/octet-stream;base64,"
    }
  ],
  "accessors": [
    {
      "bufferView": 0,
      "componentType": 5126,
      "count": 5120,
      "max": [
        72.05687713623047,
        55.806304931640625,
        57.25038146972656
      ],
      "min": [
        -72.98682403564453,
        -73.93974304199219,
        -57.377262115478516
      ],
      "type": "VEC3"
    },
    {
      "bufferView": 1,
      "componentType": 5126,
      "count": 5120,
      "max": [
        0.9999020099639893,
        0.9993888735771179,
        0.9977958798408508
      ],
      "min": [
        -0.9997236132621765,
        -0.9987998008728027,
        -0.9999937415122986
      ],
      "type": "VEC3"
    },
    {
      "bufferView": 2,
      "componentType": 5125,
      "count": 7680,
      "max": [
        5119
      ],
      "min": [
        0
      ],
      "type": "SCALAR"
    }
  ],
  "meshes": [
    {
      "primitives": [
        {
          "mode": 4,
          "attributes": {
            "POSITION": 0,
            "NORMAL": 1
          },
          "extras": {
            "type": "SubdivGeometry",
            "parameters": {
              "width": 146.71719360351562,
              "height": 131.43097686767578,
              "depth": 116.08393859863281
            }
          },
          "indices": 2
        }
      ]
    }
  ],
  "extensions": {
    "KHR_lights_punctual": {
      "lights": [
        {
          "name": "Point Light 4",
          "color": [
            0.5894645024271845,
            0.08127268653572632,
            0.08127268653572632
          ],
          "intensity": 8.188,
          "type": "point",
          "range": 4350
        },
        {
          "name": "Point Light 3",
          "color": [
            0.5894645024271845,
            0.08127268653572632,
            0.08127268653572632
          ],
          "intensity": 8.188,
          "type": "point",
          "range": 4350
        },
        {
          "name": "Point Light 2",
          "color": [
            0.41269720873786414,
            0.2152151459629096,
            0.2152151459629096
          ],
          "intensity": 8.188,
          "type": "point",
          "range": 4350
        },
        {
          "name": "Point Light",
          "color": [
            0.9139108009708736,
            0.2519424155133981,
            0.2519424155133981
          ],
          "intensity": 4.416,
          "type": "point",
          "range": 4350
        }
      ]
    }
  },
  "cameras": [
    {
      "type": "perspective",
      "perspective": {
        "aspectRatio": 2.210071942446043,
        "yfov": 0.7853981633974483,
        "zfar": 100000,
        "znear": 70
      }
    }
  ],
  "extensionsUsed": [
    "KHR_lights_punctual"
  ]
}